<svg xmlns="http://www.w3.org/2000/svg" width="132" height="27" viewBox="0 0 132 27" fill="none">
  <g filter="url(#filter0_d_19_873)">
    <path d="M11.0097 6.13218L13.4705 1.45073C13.7864 0.849756 14.6991 0.849756 15.0149 1.45073L17.4757 6.13218L22.9789 6.88752C23.685 6.98443 23.9663 7.79946 23.4552 8.26696L19.4738 11.9084L20.4134 17.0528C20.5341 17.7135 19.7956 18.2172 19.1638 17.9052L14.2427 15.475L9.32159 17.9052C8.68982 18.2172 7.95134 17.7135 8.072 17.0528L9.0116 11.9084L5.03028 8.26696C4.5191 7.79946 4.80052 6.98443 5.50659 6.88752L11.0097 6.13218Z" fill="#495E57" stroke="#495E57" stroke-width="0.5" stroke-linecap="round" stroke-linejoin="round"/>
    <path d="M37.0097 6.13218L39.4705 1.45073C39.7864 0.849756 40.6991 0.849756 41.0149 1.45073L43.4757 6.13218L48.9789 6.88752C49.685 6.98443 49.9663 7.79946 49.4552 8.26696L45.4738 11.9084L46.4134 17.0528C46.5341 17.7135 45.7956 18.2172 45.1638 17.9052L40.2427 15.475L35.3216 17.9052C34.6898 18.2172 33.9513 17.7135 34.072 17.0528L35.0116 11.9084L31.0303 8.26696C30.5191 7.79946 30.8005 6.98443 31.5066 6.88752L37.0097 6.13218Z" fill="#495E57" stroke="#495E57" stroke-width="0.5" stroke-linecap="round" stroke-linejoin="round"/>
    <path d="M63.0097 6.13218L65.4705 1.45073C65.7864 0.849756 66.6991 0.849756 67.0149 1.45073L69.4757 6.13218L74.9789 6.88752C75.685 6.98443 75.9663 7.79946 75.4552 8.26696L71.4738 11.9084L72.4134 17.0528C72.5341 17.7135 71.7956 18.2172 71.1638 17.9052L66.2427 15.475L61.3216 17.9052C60.6898 18.2172 59.9513 17.7135 60.072 17.0528L61.0116 11.9084L57.0303 8.26696C56.5191 7.79946 56.8005 6.98443 57.5066 6.88752L63.0097 6.13218Z" fill="#495E57" stroke="#495E57" stroke-width="0.5" stroke-linecap="round" stroke-linejoin="round"/>
    <path d="M89.0097 6.13218L91.4705 1.45073C91.7864 0.849756 92.6991 0.849756 93.0149 1.45073L95.4757 6.13218L100.979 6.88752C101.685 6.98443 101.966 7.79946 101.455 8.26696L97.4738 11.9084L98.4134 17.0528C98.5341 17.7135 97.7956 18.2172 97.1638 17.9052L92.2427 15.475L87.3216 17.9052C86.6898 18.2172 85.9513 17.7135 86.072 17.0528L87.0116 11.9084L83.0303 8.26696C82.5191 7.79946 82.8005 6.98443 83.5066 6.88752L89.0097 6.13218Z" fill="#495E57" stroke="#495E57" stroke-width="0.5" stroke-linecap="round" stroke-linejoin="round"/>
    <path d="M115.01 6.13218L117.471 1.45073C117.786 0.849756 118.699 0.849756 119.015 1.45073L121.476 6.13218L126.979 6.88752C127.685 6.98443 127.966 7.79946 127.455 8.26696L123.474 11.9084L124.413 17.0528C124.534 17.7135 123.796 18.2172 123.164 17.9052L118.243 15.475L113.322 17.9052C112.69 18.2172 111.951 17.7135 112.072 17.0528L113.012 11.9084L109.03 8.26696C108.519 7.79946 108.801 6.98443 109.507 6.88752L115.01 6.13218Z" fill="url(#paint0_linear_19_873)" stroke="#495E57" stroke-width="0.5" stroke-linecap="round" stroke-linejoin="round"/>
  </g>
  <defs>
    <filter id="filter0_d_19_873" x="0.516846" y="0.75" width="131.452" height="25.5" filterUnits="userSpaceOnUse" color-interpolation-filters="sRGB">
      <feFlood flood-opacity="0" result="BackgroundImageFix"/>
      <feColorMatrix in="SourceAlpha" type="matrix" values="0 0 0 0 0 0 0 0 0 0 0 0 0 0 0 0 0 0 127 0" result="hardAlpha"/>
      <feOffset dy="4"/>
      <feGaussianBlur stdDeviation="2"/>
      <feComposite in2="hardAlpha" operator="out"/>
      <feColorMatrix type="matrix" values="0 0 0 0 0 0 0 0 0 0 0 0 0 0 0 0 0 0 0.25 0"/>
      <feBlend mode="normal" in2="BackgroundImageFix" result="effect1_dropShadow_19_873"/>
      <feBlend mode="normal" in="SourceGraphic" in2="effect1_dropShadow_19_873" result="shape"/>
    </filter>
    <linearGradient id="paint0_linear_19_873" x1="127.769" y1="7" x2="109.769" y2="7" gradientUnits="userSpaceOnUse">
      <stop stop-color="white"/>
      <stop offset="0.46875" stop-color="white"/>
      <stop offset="0.515625" stop-color="#495E57"/>
      <stop offset="1" stop-color="#1F674F"/>
    </linearGradient>
  </defs>
</svg>