<svg xmlns="http://www.w3.org/2000/svg" width="146" height="134" viewBox="0 0 146 134" fill="none">
  <path d="M24.9499 117.849C30.5835 117.849 35.1505 112.695 35.1505 106.337C35.1505 99.9801 30.5835 94.8264 24.9499 94.8264C19.3162 94.8264 14.7493 99.9801 14.7493 106.337C14.7493 112.695 19.3162 117.849 24.9499 117.849Z" stroke="#525050" stroke-opacity="0.91" stroke-width="2.22007" stroke-linecap="round" stroke-linejoin="round"/>
  <path d="M2 117.849V94.8264C2 86.8797 7.70873 80.4376 14.7508 80.4376H35.1521C42.1941 80.4376 47.9028 86.8797 47.9028 94.8264V117.849C47.9028 125.795 42.1941 132.237 35.1521 132.237H14.7508C7.70873 132.237 2 125.795 2 117.849Z" stroke="#525050" stroke-opacity="0.91" stroke-width="2.22007"/>
  <path d="M38.9758 90.5494L39.0105 90.5062" stroke="#525050" stroke-opacity="0.91" stroke-width="2.22007" stroke-linecap="round" stroke-linejoin="round"/>
  <path d="M45.9902 16.3888V39.4109C45.9902 47.3576 40.5193 53.7998 33.7707 53.7998H14.2195C7.47087 53.7998 2 47.3576 2 39.4109V16.3888C2 8.44211 7.47087 2 14.2195 2H33.7707C40.5193 2 45.9902 8.44211 45.9902 16.3888Z" stroke="#525050" stroke-opacity="0.91" stroke-width="2.22007" stroke-linecap="round" stroke-linejoin="round"/>
  <path d="M21.5496 53.7997C21.5496 45.1664 21.5496 36.5331 21.5496 27.8999C21.5496 21.6047 22.7715 16.3888 31.3252 16.3888" stroke="#525050" stroke-opacity="0.91" stroke-width="2.22007" stroke-linecap="round" stroke-linejoin="round"/>
  <path d="M16.6619 30.7777H21.5497H31.3253" stroke="#525050" stroke-opacity="0.91" stroke-width="2.22007" stroke-linecap="round" stroke-linejoin="round"/>
  <path d="M144.181 80.4667C144.181 80.4667 139.018 83.908 136.148 84.8835C134.607 82.8844 132.56 81.4675 130.282 80.8244C128.005 80.1813 125.607 80.3431 123.414 81.2878C121.22 82.2325 119.337 83.9146 118.018 86.1066C116.7 88.2986 116.009 90.8947 116.041 93.5438V96.4306C111.545 96.5621 107.091 95.437 103.074 93.1554C99.0566 90.8737 95.602 87.5065 93.0174 83.3535C93.0174 83.3535 82.7848 109.335 105.808 120.882C100.54 124.917 94.2637 126.941 87.9011 126.655C110.925 141.089 139.064 126.655 139.064 93.4572C139.062 92.6531 138.993 91.851 138.86 91.0612C141.47 88.1556 144.181 80.4667 144.181 80.4667Z" stroke="#525050" stroke-opacity="0.91" stroke-width="2.22007" stroke-linecap="round" stroke-linejoin="round"/>
  <path d="M131.837 16.3888V39.4109C131.837 47.3576 126.129 53.7998 119.087 53.7998H98.6854C91.6433 53.7998 85.9346 47.3576 85.9346 39.4109V16.3888C85.9346 8.44211 91.6433 2 98.6854 2H119.087C126.129 2 131.837 8.44211 131.837 16.3888Z" stroke="#525050" stroke-opacity="0.91" stroke-width="2.22007" stroke-linecap="round" stroke-linejoin="round"/>
  <path d="M96.1357 42.2888V32.2166V22.1444" stroke="#525050" stroke-opacity="0.91" stroke-width="2.22007" stroke-linecap="round" stroke-linejoin="round"/>
  <path d="M106.336 42.2888V32.936M106.336 32.936V22.1444M106.336 32.936C106.336 22.1444 121.637 22.1444 121.637 32.936V42.2888" stroke="#525050" stroke-opacity="0.91" stroke-width="2.22007" stroke-linecap="round" stroke-linejoin="round"/>
  <path d="M96.1357 13.5511L96.1704 13.5079" stroke="#525050" stroke-opacity="0.91" stroke-width="2.22007" stroke-linecap="round" stroke-linejoin="round"/>
</svg>